<?xml version="1.0" encoding="UTF-8"?>
<svg version="1.1" xmlns="http://www.w3.org/2000/svg" width="225" height="225">
<path d="M0 0 C13.51314672 11.8948058 23.79294273 28.39954729 25.0625 46.6875 C25.1687908 50.52230523 25.15772065 54.35163246 25.125 58.1875 C25.12048828 59.20070313 25.11597656 60.21390625 25.11132812 61.2578125 C25.09964593 63.73443827 25.08326582 66.21093657 25.0625 68.6875 C25.80757812 68.97367187 26.55265625 69.25984375 27.3203125 69.5546875 C40.35650523 74.94000928 46.72757808 85.07357445 52.0625 97.6875 C53.32011388 102.09992812 53.24604056 106.56768124 53.25 111.125 C53.26224609 111.86298828 53.27449219 112.60097656 53.28710938 113.36132812 C53.28904297 114.08642578 53.29097656 114.81152344 53.29296875 115.55859375 C53.29707764 116.20755615 53.30118652 116.85651855 53.30541992 117.52514648 C52.98142618 120.40917923 52.04111466 122.96497802 51.0625 125.6875 C45.37011098 125.86137466 39.67928811 125.98795498 33.98486328 126.07202148 C32.05066991 126.10708581 30.11666024 126.15475297 28.18310547 126.21557617 C10.02169164 126.77230163 10.02169164 126.77230163 4.921875 122.32421875 C3.34277344 120.4597168 3.34277344 120.4597168 2.0625 118.6875 C1.155 117.82125 0.2475 116.955 -0.6875 116.0625 C-2.9375 113.6875 -2.9375 113.6875 -4.9375 111.125 C-7.05628607 108.54272947 -9.30952922 106.73859914 -11.9375 104.6875 C-14.45565318 102.29218356 -16.7455407 99.93518942 -18.875 97.1875 C-21.28664516 94.26429375 -24.0047892 92.08154964 -26.9375 89.6875 C-29.4784604 87.26753771 -31.77841119 84.89133254 -33.9375 82.125 C-36.04673862 79.55436544 -38.34198386 77.75060257 -40.9375 75.6875 C-42.75 73.4375 -42.75 73.4375 -43.9375 71.6875 C-47.30139668 71.93667753 -48.07791544 72.84591742 -50.375 75.4375 C-50.79652344 75.97632812 -51.21804687 76.51515625 -51.65234375 77.0703125 C-54.25351589 80.34352 -57.2110443 83.12051019 -60.5 85.6875 C-63.08227053 87.80628607 -64.88640086 90.05952922 -66.9375 92.6875 C-69.33281644 95.20565318 -71.68981058 97.4955407 -74.4375 99.625 C-77.36070625 102.03664516 -79.54345036 104.7547892 -81.9375 107.6875 C-84.35746229 110.2284604 -86.73366746 112.52841119 -89.5 114.6875 C-92.07863174 116.8033004 -93.89895598 119.05712062 -95.9375 121.6875 C-98.17437906 124.42779471 -99.28815355 125.56678522 -102.81455994 126.22235107 C-103.92754959 126.23759827 -105.04053925 126.25284546 -106.18725586 126.26855469 C-107.4521434 126.2940741 -108.71703094 126.31959351 -110.02024841 126.34588623 C-111.39760729 126.35200103 -112.77497439 126.35645683 -114.15234375 126.359375 C-115.56954994 126.37223436 -116.98675082 126.38569134 -118.40394592 126.39971924 C-121.37220568 126.42364742 -124.34000023 126.43108277 -127.30834961 126.42871094 C-131.10693217 126.42830425 -134.90252648 126.4829291 -138.70040035 126.55179977 C-141.62681188 126.59633961 -144.55250369 126.60438633 -147.47921944 126.60227203 C-148.87910847 126.60698313 -150.27901745 126.62462739 -151.6785717 126.6556015 C-162.58287351 126.87436195 -162.58287351 126.87436195 -165.87063599 123.99377441 C-167.20714698 121.91695226 -168.10380033 120.00757647 -168.9375 117.6875 C-169.25778671 116.95126404 -169.57807343 116.21502808 -169.9080658 115.45648193 C-172.29634745 109.72931526 -172.21585333 103.73109625 -172.25 97.625 C-172.25555908 96.78614258 -172.26111816 95.94728516 -172.2668457 95.08300781 C-172.1676442 86.42449704 -170.60311199 78.92735794 -166.4375 71.3125 C-166.0871167 70.67111084 -165.7367334 70.02972168 -165.37573242 69.36889648 C-158.08118918 56.54309757 -147.35265582 46.99524324 -133.08300781 42.7175293 C-127.2899152 41.14934924 -121.92185605 40.19898114 -115.9375 40.6875 C-115.83953125 40.14222656 -115.7415625 39.59695312 -115.640625 39.03515625 C-112.19368319 21.6518721 -101.49697236 7.17585016 -87.3359375 -3.1328125 C-60.46592174 -21.09388283 -25.40267398 -19.81693194 0 0 Z " fill="#80007E" transform="translate(171.9375,15.3125)"/>
<path d="M0 0 C3.97666535 2.23687426 6.64736205 5.69301851 9.5 9.1875 C11.84038392 11.93745111 14.15908348 13.9232897 17 16.125 C19.51815318 18.52031644 21.8080407 20.87731058 23.9375 23.625 C26.34914516 26.54820625 29.0672892 28.73095036 32 31.125 C34.5409604 33.54496229 36.84091119 35.92116746 39 38.6875 C41.11878607 41.26977053 43.37202922 43.07390086 46 45.125 C48.51815318 47.52031644 50.8080407 49.87731058 52.9375 52.625 C55.34914516 55.54820625 58.0672892 57.73095036 61 60.125 C64.81974664 63.67190759 67.01024484 66.64036725 70 71.125 C51.52 71.125 33.04 71.125 14 71.125 C14 77.065 14 83.005 14 89.125 C9.24752475 97.44183168 9.24752475 97.44183168 4 99.125 C-1.6645008 99.84704588 -6.20194001 99.47248372 -11 96.125 C-15 90.125 -15 90.125 -15 71.125 C-33.48 71.125 -51.96 71.125 -71 71.125 C-63.01470588 60.47794118 -63.01470588 60.47794118 -57.4375 56.125 C-54.85522947 54.00621393 -53.05109914 51.75297078 -51 49.125 C-48.42801937 46.41765197 -45.8321726 43.98799804 -42.9375 41.625 C-40.18754889 39.28461608 -38.2017103 36.96591652 -36 34.125 C-33.5844822 31.58560949 -31.20100612 29.28188282 -28.4375 27.125 C-25.85522947 25.00621393 -24.05109914 22.75297078 -22 20.125 C-19.42801937 17.41765197 -16.8321726 14.98799804 -13.9375 12.625 C-11.18754889 10.28461608 -9.2017103 7.96591652 -7 5.125 C-2.68965517 0.16810345 -2.68965517 0.16810345 0 0 Z " fill="#80017E" transform="translate(127,125.875)"/>
<path d="M0 0 C4.875 4.75 4.875 4.75 6 7 C-12.48 7 -30.96 7 -50 7 C-50 12.94 -50 18.88 -50 25 C-54.70588235 33.23529412 -54.70588235 33.23529412 -60 35 C-62.375 34.6875 -62.375 34.6875 -64 34 C-64 33.67 -64 33.34 -64 33 C-62.02 33 -60.04 33 -58 33 C-58.495 31.515 -58.495 31.515 -59 30 C-57.35 29.67 -55.7 29.34 -54 29 C-53.9498877 28.34402832 -53.89977539 27.68805664 -53.84814453 27.01220703 C-53.61648669 24.04898284 -53.3709218 21.08707304 -53.125 18.125 C-53.04636719 17.09246094 -52.96773437 16.05992187 -52.88671875 14.99609375 C-52.80292969 14.00996094 -52.71914062 13.02382812 -52.6328125 12.0078125 C-52.55949707 11.09660645 -52.48618164 10.18540039 -52.41064453 9.24658203 C-52 7 -52 7 -50 5 C-47.82333374 4.7215271 -47.82333374 4.7215271 -45.09130859 4.68115234 C-43.55994766 4.65134781 -43.55994766 4.65134781 -41.99765015 4.62094116 C-40.89240997 4.60938995 -39.7871698 4.59783875 -38.6484375 4.5859375 C-37.5192691 4.56657135 -36.39010071 4.5472052 -35.22671509 4.5272522 C-31.60955428 4.46732931 -27.99236187 4.42101998 -24.375 4.375 C-21.92706922 4.33683195 -19.47915204 4.29778092 -17.03125 4.2578125 C-11.02095376 4.16161741 -5.01057607 4.07660735 1 4 C0.505 2.02 0.505 2.02 0 0 Z " fill="#6E136D" transform="translate(191,190)"/>
<path d="M0 0 C3.42954073 1.92911666 6.23418657 4.59337315 8 8.125 C6.02 7.465 4.04 6.805 2 6.125 C2 6.785 2 7.445 2 8.125 C1.278125 8.021875 0.55625 7.91875 -0.1875 7.8125 C-4.11198053 8.24855339 -5.38656469 10.29966453 -8 13.125 C-8.66 13.125 -9.32 13.125 -10 13.125 C-9.67 14.115 -9.34 15.105 -9 16.125 C-12 17.125 -12 17.125 -15 16.125 C-15.33 17.115 -15.66 18.105 -16 19.125 C-16.66 19.125 -17.32 19.125 -18 19.125 C-18 19.785 -18 20.445 -18 21.125 C-18.99 21.125 -19.98 21.125 -21 21.125 C-20.67 22.775 -20.34 24.425 -20 26.125 C-21.3921875 26.805625 -21.3921875 26.805625 -22.8125 27.5 C-26.03921389 29.0671633 -26.03921389 29.0671633 -29 31.125 C-29.66 30.465 -30.32 29.805 -31 29.125 C-30.2575 28.568125 -29.515 28.01125 -28.75 27.4375 C-26.06089262 25.17620516 -24.15434893 22.88525956 -22 20.125 C-19.42801937 17.41765197 -16.8321726 14.98799804 -13.9375 12.625 C-11.18754889 10.28461608 -9.2017103 7.96591652 -7 5.125 C-2.68965517 0.16810345 -2.68965517 0.16810345 0 0 Z " fill="#79067B" transform="translate(127,125.875)"/>
<path d="M0 0 C0.66 0.33 1.32 0.66 2 1 C1.34 2.32 0.68 3.64 0 5 C17.16 5.33 34.32 5.66 52 6 C52 12.27 52 18.54 52 25 C52.66 25.33 53.32 25.66 54 26 C57 29.57692308 57 29.57692308 57 32 C56.34 32 55.68 32 55 32 C51 26 51 26 51 7 C32.52 7 14.04 7 -5 7 C-3.35 4.69 -1.7 2.38 0 0 Z " fill="#6B1B6C" transform="translate(61,190)"/>
<path d="M0 0 C2 2 2 2 2.22705078 4.24658203 C2.21657715 5.15778809 2.20610352 6.06899414 2.1953125 7.0078125 C2.18886719 7.99394531 2.18242187 8.98007813 2.17578125 9.99609375 C2.15902344 11.02863281 2.14226562 12.06117187 2.125 13.125 C2.11597656 14.16527344 2.10695312 15.20554687 2.09765625 16.27734375 C2.07403747 18.85179092 2.04110149 21.42578212 2 24 C2.78391113 24.30921387 3.56782227 24.61842773 4.37548828 24.93701172 C11.7532619 27.92518161 17.39419178 32.47990274 22 39 C22 39.66 22 40.32 22 41 C21.34 41 20.68 41 20 41 C18.64613064 39.34997172 17.31321858 37.6825613 16 36 C15.34 35.67 14.68 35.34 14 35 C14 34.34 14 33.68 14 33 C11.66785852 31.79371992 9.50357861 30.8345262 7 30 C6.34 29.01 5.68 28.02 5 27 C4.14019531 26.66355469 3.28039062 26.32710937 2.39453125 25.98046875 C0 24 0 24 -0.40478516 21.79541016 C-0.49326685 18.9531298 -0.43439076 16.1534924 -0.3125 13.3125 C-0.28994141 12.32443359 -0.26738281 11.33636719 -0.24414062 10.31835938 C-0.18517988 7.87738441 -0.10295048 5.43945132 0 3 C-0.66 3 -1.32 3 -2 3 C-2 2.34 -2 1.68 -2 1 C-1.34 0.67 -0.68 0.34 0 0 Z " fill="#6F106B" transform="translate(195,60)"/>
<path d="M0 0 C0.66 0 1.32 0 2 0 C1.67 1.65 1.34 3.3 1 5 C-0.32 5.33 -1.64 5.66 -3 6 C-3.1546875 7.670625 -3.1546875 7.670625 -3.3125 9.375 C-3.539375 10.57125 -3.76625 11.7675 -4 13 C-4.99 13.66 -5.98 14.32 -7 15 C-8.2065625 16.051875 -8.2065625 16.051875 -9.4375 17.125 C-12 19 -12 19 -16 19 C-16 19.66 -16 20.32 -16 21 C-16.99 20.67 -17.98 20.34 -19 20 C-15.14369747 15.26225689 -11.27804224 10.77798419 -6.4375 7 C-3.87438268 5.03976682 -3.87438268 5.03976682 -1.8125 2.25 C-1.214375 1.5075 -0.61625 0.765 0 0 Z " fill="#760978" transform="translate(83,168)"/>
<path d="M0 0 C9.32327249 4.52037454 16.78548767 15.83976049 20.19921875 25.3359375 C20.46347656 26.21507813 20.72773438 27.09421875 21 28 C20.01 27.67 19.02 27.34 18 27 C17.505 24.525 17.505 24.525 17 22 C16.34 22 15.68 22 15 22 C14.608125 20.88625 14.21625 19.7725 13.8125 18.625 C12.57517033 15.68039334 12.26393503 15.14117455 9.3125 13.5625 C8.549375 13.376875 7.78625 13.19125 7 13 C6.67 10.69 6.34 8.38 6 6 C4.68 6 3.36 6 2 6 C0 3 0 3 0 0 Z " fill="#710F6F" transform="translate(171,16)"/>
<path d="M0 0 C2.4375 0.375 2.4375 0.375 5 1 C5.33 1.66 5.66 2.32 6 3 C25.8 3.495 25.8 3.495 46 4 C46 4.33 46 4.66 46 5 C40.25260242 5.12377604 34.50598373 5.21442248 28.75756836 5.2746582 C26.80300377 5.29977281 24.84853283 5.33387131 22.89428711 5.37719727 C20.08163332 5.43798434 17.27022298 5.46623983 14.45703125 5.48828125 C13.58601273 5.51408768 12.7149942 5.5398941 11.81758118 5.56648254 C7.24490243 5.5685873 5.57826993 5.47340398 1.90893555 2.46948242 C1.27898682 1.65455322 0.64903809 0.83962402 0 0 Z " fill="#661B68" transform="translate(177,136)"/>
<path d="M0 0 C0.33 0.66 0.66 1.32 1 2 C1.66 2 2.32 2 3 2 C3.33 3.98 3.66 5.96 4 8 C4.99 8 5.98 8 7 8 C8.25 14.625 8.25 14.625 6 18 C2.69800644 12.0564116 1.04481337 6.70880162 0 0 Z " fill="#6E0C71" transform="translate(0,120)"/>
<path d="M0 0 C0.99 0.33 1.98 0.66 3 1 C2.67 3.31 2.34 5.62 2 8 C2.99 8.33 3.98 8.66 5 9 C5 9.66 5 10.32 5 11 C5.66 11 6.32 11 7 11 C6.67 11.66 6.34 12.32 6 13 C2.80800833 10.58443874 0.25283313 8.31996462 -2 5 C-5.26954202 5.56371414 -6.82575883 6.49962266 -9 9 C-9 6.6875 -9 6.6875 -8 4 C-5.44481903 2.61706907 -2.79133871 1.78208351 0 1 C0 0.67 0 0.34 0 0 Z " fill="#740973" transform="translate(130,82)"/>
<path d="M0 0 C-5.38370348 2.99094638 -11.29573001 3.33661622 -17.3125 4.0625 C-18.05306641 4.15337891 -18.79363281 4.24425781 -19.55664062 4.33789062 C-21.37088758 4.56028219 -23.18541624 4.78037353 -25 5 C-18.89553069 -1.10446931 -7.93687125 -1.45779268 0 0 Z " fill="#6E116D" transform="translate(123,1)"/>
<path d="M0 0 C0 0.99 0 1.98 0 3 C0.103125 3.99 0.20625 4.98 0.3125 6 C0.1578125 7.485 0.1578125 7.485 0 9 C-2.3125 10.5625 -2.3125 10.5625 -5 12 C-6.03357147 13.64605826 -7.04060332 15.30963442 -8 17 C-8.66 17 -9.32 17 -10 17 C-8.0727631 10.25467085 -4.41448632 5.36044767 0 0 Z " fill="#710E70" transform="translate(15,73)"/>
<path d="M0 0 C4.25491665 0.47276852 6.22542845 2.92547477 9 6 C9.33 6.66 9.66 7.32 10 8 C8.02 7.34 6.04 6.68 4 6 C4 6.66 4 7.32 4 8 C3.01 7.67 2.02 7.34 1 7 C1.33 6.01 1.66 5.02 2 4 C1.34 3.67 0.68 3.34 0 3 C0 3.66 0 4.32 0 5 C-1.32 5.33 -2.64 5.66 -4 6 C-2.68 4.02 -1.36 2.04 0 0 Z " fill="#710C70" transform="translate(125,126)"/>
<path d="M0 0 C7.8859085 1.16892891 14.74818885 3.73543897 22 7 C22 7.33 22 7.66 22 8 C17.13103697 7.40380045 12.67209049 6.43023178 8 5 C8 4.34 8 3.68 8 3 C5.36 2.67 2.72 2.34 0 2 C0 1.34 0 0.68 0 0 Z " fill="#6F196F" transform="translate(137,0)"/>
<path d="M0 0 C0.33 0.66 0.66 1.32 1 2 C-1.22285053 2.4988096 -3.44627144 2.99405539 -5.671875 3.48046875 C-7.43403352 3.87370211 -9.18811776 4.30334922 -10.9375 4.75 C-11.618125 4.8325 -12.29875 4.915 -13 5 C-13.66 4.34 -14.32 3.68 -15 3 C-13.44033782 2.491217 -11.87710759 1.99336531 -10.3125 1.5 C-9.44238281 1.2215625 -8.57226562 0.943125 -7.67578125 0.65625 C-5.00608323 0.00149195 -2.73603316 -0.11831495 0 0 Z " fill="#6D106C" transform="translate(48,57)"/>
<path d="M0 0 C0.66 0.33 1.32 0.66 2 1 C1.34 2.32 0.68 3.64 0 5 C3.63 5.33 7.26 5.66 11 6 C11 6.33 11 6.66 11 7 C5.72 7 0.44 7 -5 7 C-3.35 4.69 -1.7 2.38 0 0 Z " fill="#641B67" transform="translate(61,190)"/>
<path d="M0 0 C0.66 0.33 1.32 0.66 2 1 C1.505 1.61875 1.01 2.2375 0.5 2.875 C-1.19222773 4.83880904 -1.19222773 4.83880904 -1 7 C-3.64 7 -6.28 7 -9 7 C-6.25604436 4.05278838 -3.61662784 1.80831392 0 0 Z " fill="#711171" transform="translate(31,61)"/>
<path d="M0 0 C1.15625 3.6796875 1.15625 3.6796875 -0.25 6.5625 C-1.72947487 8.62319713 -3.13602395 10.29810882 -5 12 C-5.66 12.66 -6.32 13.32 -7 14 C-6.44010697 10.00987629 -5.24330232 7.4744948 -2.9375 4.1875 C-2.38964844 3.39730469 -1.84179688 2.60710938 -1.27734375 1.79296875 C-0.64505859 0.90544922 -0.64505859 0.90544922 0 0 Z " fill="#6B1168" transform="translate(67,30)"/>
<path d="M0 0 C0.33 0.99 0.66 1.98 1 3 C0.67 3.66 0.34 4.32 0 5 C-0.66 5 -1.32 5 -2 5 C-2.33 5.99 -2.66 6.98 -3 8 C-3.99 8 -4.98 8 -6 8 C-6.66 9.32 -7.32 10.64 -8 12 C-8.66 11.67 -9.32 11.34 -10 11 C-6.79239749 7.19364503 -3.59253891 3.45436433 0 0 Z " fill="#720D73" transform="translate(95,156)"/>
<path d="M0 0 C3.33193619 2.69728168 4.60371996 6.02060187 6 10 C5.6875 12.4375 5.6875 12.4375 5 14 C4.566875 12.865625 4.13375 11.73125 3.6875 10.5625 C2.8521875 8.7990625 2.8521875 8.7990625 2 7 C1.01 6.67 0.02 6.34 -1 6 C-0.67 4.02 -0.34 2.04 0 0 Z " fill="#6D106B" transform="translate(218,103)"/>
<path d="M0 0 C0.66 0.33 1.32 0.66 2 1 C-2.18461538 5.92307692 -2.18461538 5.92307692 -6.3125 6.3125 C-7.199375 6.209375 -8.08625 6.10625 -9 6 C-6.45368965 3.02930459 -3.57769851 1.5224249 0 0 Z " fill="#6F0F70" transform="translate(96,6)"/>
<path d="M0 0 C0.66 0.33 1.32 0.66 2 1 C0.625 3.5 0.625 3.5 -1 6 C-1.66 6 -2.32 6 -3 6 C-3 6.66 -3 7.32 -3 8 C-4.65 8.33 -6.3 8.66 -8 9 C-7.04270084 7.87411986 -6.08412105 6.7493285 -5.125 5.625 C-4.59132813 4.99851563 -4.05765625 4.37203125 -3.5078125 3.7265625 C-2.38567993 2.44163349 -1.20628025 1.20628025 0 0 Z " fill="#700E6F" transform="translate(112,139)"/>
<path d="M0 0 C0.66 0.33 1.32 0.66 2 1 C1.67 2.32 1.34 3.64 1 5 C0.34 5 -0.32 5 -1 5 C-0.773125 5.598125 -0.54625 6.19625 -0.3125 6.8125 C-0.209375 7.534375 -0.10625 8.25625 0 9 C-1.4375 10.75 -1.4375 10.75 -3 12 C-2.14285714 3.42857143 -2.14285714 3.42857143 0 0 Z " fill="#680F68" transform="translate(4,90)"/>
<path d="M0 0 C2.475 0.99 2.475 0.99 5 2 C1.25 7.875 1.25 7.875 -1 9 C-0.7215625 7.824375 -0.7215625 7.824375 -0.4375 6.625 C0.25962266 4.02910225 0.25962266 4.02910225 -1 2 C-0.67 1.34 -0.34 0.68 0 0 Z " fill="#6F0A72" transform="translate(98,106)"/>
<path d="M0 0 C2.74953946 2.74953946 3.17042807 5.2350197 4 9 C3.625 11.9375 3.625 11.9375 3 14 C0.81005752 10.71508627 0.64722661 9.16904361 0.375 5.3125 C0.30023438 4.31863281 0.22546875 3.32476562 0.1484375 2.30078125 C0.09945312 1.54152344 0.05046875 0.78226563 0 0 Z " fill="#691067" transform="translate(192,45)"/>
<path d="M0 0 C-2.57784846 2.64752004 -4.91648098 4.94432065 -8 7 C-8 5.68 -8 4.36 -8 3 C-7.01 3 -6.02 3 -5 3 C-5.33 2.01 -5.66 1.02 -6 0 C-3.50907189 -1.24546405 -2.58919267 -0.7767578 0 0 Z " fill="#730974" transform="translate(91,122)"/>
<path d="M0 0 C0.66 1.32 1.32 2.64 2 4 C1.01 3.34 0.02 2.68 -1 2 C-4.30129606 2.30949651 -5.8586563 3.53745474 -8 6 C-7.625 3.5625 -7.625 3.5625 -7 1 C-4.53721199 -0.231394 -2.7204945 -0.07159196 0 0 Z " fill="#660B68" transform="translate(129,85)"/>
<path d="M0 0 C0 0.99 0 1.98 0 3 C-0.66 3 -1.32 3 -2 3 C-2 3.99 -2 4.98 -2 6 C-4 7.6875 -4 7.6875 -6 9 C-6.66 8.67 -7.32 8.34 -8 8 C-3.375 2.25 -3.375 2.25 0 0 Z " fill="#6E0E6E" transform="translate(79,17)"/>
</svg>
